<?xml version="1.0" standalone="no"?>
<!DOCTYPE svg PUBLIC "-//W3C//DTD SVG 20010904//EN"
 "http://www.w3.org/TR/2001/REC-SVG-20010904/DTD/svg10.dtd">
<svg version="1.0" xmlns="http://www.w3.org/2000/svg"
 width="1208.000000pt" height="1280.000000pt" viewBox="0 0 1208.000000 1280.000000"
 preserveAspectRatio="xMidYMid meet">
<g transform="translate(0.000000,1280.000000) scale(0.100000,-0.100000)"
fill="#ffc107" stroke="none">
<path d="M6037 12483 c-12 -22 -188 -591 -927 -2993 -176 -575 -335 -1087
-351 -1137 l-31 -93 -2103 0 c-1157 0 -2106 -4 -2109 -8 -2 -4 39 -41 92 -83
97 -75 2324 -1783 2965 -2273 260 -200 337 -264 337 -280 0 -12 -23 -96 -51
-187 -222 -719 -1227 -3990 -1233 -4012 -4 -18 -3 -28 3 -25 9 3 1602 1221
2926 2237 259 199 478 361 487 361 9 0 156 -107 326 -238 171 -130 663 -507
1093 -837 1736 -1330 1994 -1526 1997 -1516 4 13 104 -314 -1231 4024 l-61
198 30 28 c16 16 344 269 729 564 1653 1264 2639 2023 2643 2035 3 9 -447 12
-2102 12 -1995 0 -2106 1 -2115 18 -5 9 -86 269 -181 577 -695 2262 -1120
3635 -1125 3635 -2 0 -6 -3 -8 -7z"/>
</g>
</svg>
