<?xml version="1.0" standalone="no"?>
<!DOCTYPE svg PUBLIC "-//W3C//DTD SVG 20010904//EN"
 "http://www.w3.org/TR/2001/REC-SVG-20010904/DTD/svg10.dtd">
<svg version="1.0" xmlns="http://www.w3.org/2000/svg"
 width="271.000000pt" height="271.000000pt" viewBox="0 0 271.000000 271.000000"
 preserveAspectRatio="xMidYMid meet">

<g transform="translate(0.000000,271.000000) scale(0.100000,-0.100000)"
fill="#000000" stroke="none">
<path d="M1363 2310 c-61 -14 -141 -61 -183 -106 -70 -76 -86 -125 -120 -364
-17 -118 -32 -215 -33 -216 -1 -1 -51 40 -111 92 -121 105 -143 112 -196 68
-17 -15 -41 -45 -53 -68 -28 -54 -30 -155 -3 -206 10 -19 76 -94 147 -166 70
-72 133 -143 139 -158 13 -35 13 -95 -2 -211 -14 -121 0 -213 47 -310 55 -111
53 -109 119 -90 117 34 227 -29 256 -148 l12 -47 64 0 c60 0 64 2 64 23 1 69
75 155 154 177 41 11 55 11 106 -4 33 -9 62 -16 64 -16 11 0 72 109 93 168 19
51 25 87 25 152 0 116 -145 1140 -171 1210 -61 161 -250 260 -418 220z m-3
-280 c11 -11 20 -28 20 -38 0 -28 -29 -62 -52 -62 -54 0 -79 74 -36 104 30 21
44 20 68 -4z m240 0 c53 -53 -16 -134 -72 -83 -10 9 -18 27 -18 40 0 26 32 63
55 63 8 0 24 -9 35 -20z m-55 -191 l85 -31 -38 -28 c-85 -61 -199 -67 -274
-14 -23 16 -42 33 -42 38 -1 9 146 65 171 66 7 0 50 -14 98 -31z m-14 -349
c52 -27 121 -122 148 -202 32 -96 44 -216 31 -317 -18 -154 -54 -235 -133
-308 -59 -55 -105 -69 -172 -54 -73 16 -126 65 -169 154 -104 213 -80 523 50
666 72 80 162 103 245 61z"/>
</g>
</svg>
